<svg width="40" height="40" viewBox="0 0 40 40" fill="none" xmlns="http://www.w3.org/2000/svg">
<g opacity="0.2">
<path d="M28.75 6.25H20L12.3281 16.25L20 35L37.5 16.25L28.75 6.25Z" fill="#4B465C"/>
<path d="M28.75 6.25H20L12.3281 16.25L20 35L37.5 16.25L28.75 6.25Z" fill="white" fill-opacity="0.2"/>
</g>
<path d="M11.25 6.25H28.75L37.5 16.25L20 35L2.5 16.25L11.25 6.25Z" stroke="#4B465C" stroke-width="2" stroke-linecap="round" stroke-linejoin="round"/>
<path d="M11.25 6.25H28.75L37.5 16.25L20 35L2.5 16.25L11.25 6.25Z" stroke="white" stroke-opacity="0.2" stroke-width="2" stroke-linecap="round" stroke-linejoin="round"/>
<path fill-rule="evenodd" clip-rule="evenodd" d="M20.7934 5.64131C20.6042 5.39462 20.3109 5.25 20 5.25C19.6891 5.25 19.3958 5.39462 19.2066 5.64131L11.8349 15.25H2.5C1.94772 15.25 1.5 15.6977 1.5 16.25C1.5 16.8023 1.94772 17.25 2.5 17.25H11.6568L19.0745 35.3787C19.2282 35.7545 19.594 36 20 36C20.406 36 20.7718 35.7545 20.9255 35.3787L28.3432 17.25H37.5C38.0523 17.25 38.5 16.8023 38.5 16.25C38.5 15.6977 38.0523 15.25 37.5 15.25H28.1651L20.7934 5.64131ZM25.6443 15.25L20 7.89287L14.3557 15.25H25.6443ZM13.8178 17.25L20 32.3593L26.1822 17.25H13.8178Z" fill="#4B465C"/>
<path fill-rule="evenodd" clip-rule="evenodd" d="M20.7934 5.64131C20.6042 5.39462 20.3109 5.25 20 5.25C19.6891 5.25 19.3958 5.39462 19.2066 5.64131L11.8349 15.25H2.5C1.94772 15.25 1.5 15.6977 1.5 16.25C1.5 16.8023 1.94772 17.25 2.5 17.25H11.6568L19.0745 35.3787C19.2282 35.7545 19.594 36 20 36C20.406 36 20.7718 35.7545 20.9255 35.3787L28.3432 17.25H37.5C38.0523 17.25 38.5 16.8023 38.5 16.25C38.5 15.6977 38.0523 15.25 37.5 15.25H28.1651L20.7934 5.64131ZM25.6443 15.25L20 7.89287L14.3557 15.25H25.6443ZM13.8178 17.25L20 32.3593L26.1822 17.25H13.8178Z" fill="white" fill-opacity="0.2"/>
</svg>
