<svg width="41" height="40" viewBox="0 0 41 40" fill="none" xmlns="http://www.w3.org/2000/svg">
<path opacity="0.2" d="M23.1667 33.75V6.25C23.1667 5.91848 23.035 5.60054 22.8006 5.36612C22.5662 5.1317 22.2482 5 21.9167 5H6.91669C6.58517 5 6.26722 5.1317 6.0328 5.36612C5.79838 5.60054 5.66669 5.91848 5.66669 6.25V33.75" fill="#7367F0"/>
<path d="M3.16669 33.75H38.1667M23.1667 33.75V6.25C23.1667 5.91848 23.035 5.60054 22.8006 5.36612C22.5662 5.1317 22.2482 5 21.9167 5H6.91669C6.58517 5 6.26722 5.1317 6.0328 5.36612C5.79838 5.60054 5.66669 5.91848 5.66669 6.25V33.75M35.6667 33.75V16.25C35.6667 15.9185 35.535 15.6005 35.3006 15.3661C35.0662 15.1317 34.7482 15 34.4167 15H23.1667M10.6667 11.25H15.6667M13.1667 21.25H18.1667M10.6667 27.5H15.6667M28.1667 27.5H30.6667M28.1667 21.25H30.6667" stroke="#7367F0" stroke-width="2" stroke-linecap="round" stroke-linejoin="round"/>
</svg>
