<svg width="41" height="40" viewBox="0 0 41 40" fill="none" xmlns="http://www.w3.org/2000/svg">
<g opacity="0.2">
<path fill-rule="evenodd" clip-rule="evenodd" d="M14.0833 33.75V11.25H6.58325C6.25173 11.25 5.93379 11.3817 5.69937 11.6161C5.46495 11.8505 5.33325 12.1685 5.33325 12.5V32.5C5.33325 32.8315 5.46495 33.1495 5.69937 33.3839C5.93379 33.6183 6.25173 33.75 6.58325 33.75H14.0833ZM26.5833 33.75V11.25H34.0833C34.4148 11.25 34.7327 11.3817 34.9671 11.6161C35.2016 11.8505 35.3333 12.1685 35.3333 12.5V32.5C35.3333 32.8315 35.2016 33.1495 34.9671 33.3839C34.7327 33.6183 34.4148 33.75 34.0833 33.75H26.5833Z" fill="#4B465C"/>
<path fill-rule="evenodd" clip-rule="evenodd" d="M14.0833 33.75V11.25H6.58325C6.25173 11.25 5.93379 11.3817 5.69937 11.6161C5.46495 11.8505 5.33325 12.1685 5.33325 12.5V32.5C5.33325 32.8315 5.46495 33.1495 5.69937 33.3839C5.93379 33.6183 6.25173 33.75 6.58325 33.75H14.0833ZM26.5833 33.75V11.25H34.0833C34.4148 11.25 34.7327 11.3817 34.9671 11.6161C35.2016 11.8505 35.3333 12.1685 35.3333 12.5V32.5C35.3333 32.8315 35.2016 33.1495 34.9671 33.3839C34.7327 33.6183 34.4148 33.75 34.0833 33.75H26.5833Z" fill="white" fill-opacity="0.2"/>
</g>
<path fill-rule="evenodd" clip-rule="evenodd" d="M16.5833 5.25C15.655 5.25 14.7648 5.61875 14.1084 6.27513C13.452 6.9315 13.0833 7.82174 13.0833 8.75V10.25H6.58325C5.34061 10.25 4.33325 11.2574 4.33325 12.5V32.5C4.33325 33.7426 5.34061 34.75 6.58325 34.75H14.0833H26.5833H34.0833C35.3259 34.75 36.3333 33.7426 36.3333 32.5V12.5C36.3333 11.2574 35.3259 10.25 34.0833 10.25H27.5833V8.75C27.5833 7.82174 27.2145 6.9315 26.5581 6.27513C25.9017 5.61875 25.0115 5.25 24.0833 5.25H16.5833ZM25.5833 10.25V8.75C25.5833 8.35218 25.4252 7.97064 25.1439 7.68934C24.8626 7.40804 24.4811 7.25 24.0833 7.25H16.5833C16.1854 7.25 15.8039 7.40804 15.5226 7.68934C15.2413 7.97064 15.0833 8.35218 15.0833 8.75V10.25H25.5833ZM15.0833 12.25H25.5833V32.75H15.0833V12.25ZM13.0833 12.25H6.58325C6.44518 12.25 6.33325 12.3619 6.33325 12.5V32.5C6.33325 32.6381 6.44518 32.75 6.58325 32.75H13.0833V12.25ZM27.5833 32.75V12.25H34.0833C34.2213 12.25 34.3333 12.3619 34.3333 12.5V32.5C34.3333 32.6381 34.2213 32.75 34.0833 32.75H27.5833Z" fill="#4B465C"/>
<path fill-rule="evenodd" clip-rule="evenodd" d="M16.5833 5.25C15.655 5.25 14.7648 5.61875 14.1084 6.27513C13.452 6.9315 13.0833 7.82174 13.0833 8.75V10.25H6.58325C5.34061 10.25 4.33325 11.2574 4.33325 12.5V32.5C4.33325 33.7426 5.34061 34.75 6.58325 34.75H14.0833H26.5833H34.0833C35.3259 34.75 36.3333 33.7426 36.3333 32.5V12.5C36.3333 11.2574 35.3259 10.25 34.0833 10.25H27.5833V8.75C27.5833 7.82174 27.2145 6.9315 26.5581 6.27513C25.9017 5.61875 25.0115 5.25 24.0833 5.25H16.5833ZM25.5833 10.25V8.75C25.5833 8.35218 25.4252 7.97064 25.1439 7.68934C24.8626 7.40804 24.4811 7.25 24.0833 7.25H16.5833C16.1854 7.25 15.8039 7.40804 15.5226 7.68934C15.2413 7.97064 15.0833 8.35218 15.0833 8.75V10.25H25.5833ZM15.0833 12.25H25.5833V32.75H15.0833V12.25ZM13.0833 12.25H6.58325C6.44518 12.25 6.33325 12.3619 6.33325 12.5V32.5C6.33325 32.6381 6.44518 32.75 6.58325 32.75H13.0833V12.25ZM27.5833 32.75V12.25H34.0833C34.2213 12.25 34.3333 12.3619 34.3333 12.5V32.5C34.3333 32.6381 34.2213 32.75 34.0833 32.75H27.5833Z" fill="white" fill-opacity="0.2"/>
</svg>
