<svg width="32" height="31" viewBox="0 0 32 31" fill="none" xmlns="http://www.w3.org/2000/svg">
<path d="M5.125 9.04167C5.125 8.62746 4.78921 8.29167 4.375 8.29167C3.96079 8.29167 3.625 8.62746 3.625 9.04167H5.125ZM3.625 23.25C3.625 23.6642 3.96079 24 4.375 24C4.78921 24 5.125 23.6642 5.125 23.25H3.625ZM4.375 17.3333C3.96079 17.3333 3.625 17.6691 3.625 18.0833C3.625 18.4976 3.96079 18.8333 4.375 18.8333V17.3333ZM27.625 18.8333C28.0392 18.8333 28.375 18.4976 28.375 18.0833C28.375 17.6691 28.0392 17.3333 27.625 17.3333V18.8333ZM26.875 23.25C26.875 23.6642 27.2108 24 27.625 24C28.0392 24 28.375 23.6642 28.375 23.25H26.875ZM14.7083 10.3333V9.58334C14.2941 9.58334 13.9583 9.91912 13.9583 10.3333H14.7083ZM13.9583 18.0833C13.9583 18.4976 14.2941 18.8333 14.7083 18.8333C15.1225 18.8333 15.4583 18.4976 15.4583 18.0833H13.9583ZM3.625 9.04167V23.25H5.125V9.04167H3.625ZM4.375 18.8333H27.625V17.3333H4.375V18.8333ZM28.375 23.25V12.9167H26.875V23.25H28.375ZM28.375 12.9167C28.375 11.0757 26.8826 9.58334 25.0417 9.58334V11.0833C26.0542 11.0833 26.875 11.9041 26.875 12.9167H28.375ZM25.0417 9.58334H14.7083V11.0833H25.0417V9.58334ZM13.9583 10.3333V18.0833H15.4583V10.3333H13.9583Z" fill="#989898"/>
<path d="M5.125 9.04167C5.125 8.62746 4.78921 8.29167 4.375 8.29167C3.96079 8.29167 3.625 8.62746 3.625 9.04167H5.125ZM3.625 23.25C3.625 23.6642 3.96079 24 4.375 24C4.78921 24 5.125 23.6642 5.125 23.25H3.625ZM4.375 17.3333C3.96079 17.3333 3.625 17.6691 3.625 18.0833C3.625 18.4976 3.96079 18.8333 4.375 18.8333V17.3333ZM27.625 18.8333C28.0392 18.8333 28.375 18.4976 28.375 18.0833C28.375 17.6691 28.0392 17.3333 27.625 17.3333V18.8333ZM26.875 23.25C26.875 23.6642 27.2108 24 27.625 24C28.0392 24 28.375 23.6642 28.375 23.25H26.875ZM14.7083 10.3333V9.58334C14.2941 9.58334 13.9583 9.91912 13.9583 10.3333H14.7083ZM13.9583 18.0833C13.9583 18.4976 14.2941 18.8333 14.7083 18.8333C15.1225 18.8333 15.4583 18.4976 15.4583 18.0833H13.9583ZM3.625 9.04167V23.25H5.125V9.04167H3.625ZM4.375 18.8333H27.625V17.3333H4.375V18.8333ZM28.375 23.25V12.9167H26.875V23.25H28.375ZM28.375 12.9167C28.375 11.0757 26.8826 9.58334 25.0417 9.58334V11.0833C26.0542 11.0833 26.875 11.9041 26.875 12.9167H28.375ZM25.0417 9.58334H14.7083V11.0833H25.0417V9.58334ZM13.9583 10.3333V18.0833H15.4583V10.3333H13.9583Z" fill="white" fill-opacity="0.2"/>
<circle cx="9.54167" cy="12.9167" r="1.29167" stroke="#989898" stroke-width="1.5" stroke-linecap="round" stroke-linejoin="round"/>
<circle cx="9.54167" cy="12.9167" r="1.29167" stroke="white" stroke-opacity="0.2" stroke-width="1.5" stroke-linecap="round" stroke-linejoin="round"/>
</svg>
