<svg width="30" height="31" viewBox="0 0 30 31" fill="none" xmlns="http://www.w3.org/2000/svg">
<path d="M4.5 9.15015C4.5 8.73593 4.16421 8.40015 3.75 8.40015C3.33579 8.40015 3 8.73593 3 9.15015H4.5ZM3 22.9001C3 23.3144 3.33579 23.6501 3.75 23.6501C4.16421 23.6501 4.5 23.3144 4.5 22.9001H3ZM3.75 17.1501C3.33579 17.1501 3 17.4859 3 17.9001C3 18.3144 3.33579 18.6501 3.75 18.6501V17.1501ZM26.25 18.6501C26.6642 18.6501 27 18.3144 27 17.9001C27 17.4859 26.6642 17.1501 26.25 17.1501V18.6501ZM25.5 22.9001C25.5 23.3144 25.8358 23.6501 26.25 23.6501C26.6642 23.6501 27 23.3144 27 22.9001H25.5ZM13.75 10.4001V9.65015C13.3358 9.65015 13 9.98593 13 10.4001H13.75ZM13 17.9001C13 18.3144 13.3358 18.6501 13.75 18.6501C14.1642 18.6501 14.5 18.3144 14.5 17.9001H13ZM3 9.15015V22.9001H4.5V9.15015H3ZM3.75 18.6501H26.25V17.1501H3.75V18.6501ZM27 22.9001V12.9001H25.5V22.9001H27ZM27 12.9001C27 11.1052 25.5449 9.65015 23.75 9.65015V11.1501C24.7165 11.1501 25.5 11.9336 25.5 12.9001H27ZM23.75 9.65015H13.75V11.1501H23.75V9.65015ZM13 10.4001V17.9001H14.5V10.4001H13Z" fill="#7367F0"/>
<path d="M4.5 9.15015C4.5 8.73593 4.16421 8.40015 3.75 8.40015C3.33579 8.40015 3 8.73593 3 9.15015H4.5ZM3 22.9001C3 23.3144 3.33579 23.6501 3.75 23.6501C4.16421 23.6501 4.5 23.3144 4.5 22.9001H3ZM3.75 17.1501C3.33579 17.1501 3 17.4859 3 17.9001C3 18.3144 3.33579 18.6501 3.75 18.6501V17.1501ZM26.25 18.6501C26.6642 18.6501 27 18.3144 27 17.9001C27 17.4859 26.6642 17.1501 26.25 17.1501V18.6501ZM25.5 22.9001C25.5 23.3144 25.8358 23.6501 26.25 23.6501C26.6642 23.6501 27 23.3144 27 22.9001H25.5ZM13.75 10.4001V9.65015C13.3358 9.65015 13 9.98593 13 10.4001H13.75ZM13 17.9001C13 18.3144 13.3358 18.6501 13.75 18.6501C14.1642 18.6501 14.5 18.3144 14.5 17.9001H13ZM3 9.15015V22.9001H4.5V9.15015H3ZM3.75 18.6501H26.25V17.1501H3.75V18.6501ZM27 22.9001V12.9001H25.5V22.9001H27ZM27 12.9001C27 11.1052 25.5449 9.65015 23.75 9.65015V11.1501C24.7165 11.1501 25.5 11.9336 25.5 12.9001H27ZM23.75 9.65015H13.75V11.1501H23.75V9.65015ZM13 10.4001V17.9001H14.5V10.4001H13Z" fill="white" fill-opacity="0.2"/>
<circle cx="8.75" cy="12.9001" r="1.25" stroke="#7367F0" stroke-width="1.5" stroke-linecap="round" stroke-linejoin="round"/>
<circle cx="8.75" cy="12.9001" r="1.25" stroke="white" stroke-opacity="0.2" stroke-width="1.5" stroke-linecap="round" stroke-linejoin="round"/>
</svg>
