<svg width="22" height="22" viewBox="0 0 22 22" fill="none" xmlns="http://www.w3.org/2000/svg">
<path d="M6.41663 11L11 15.5833L20.1666 6.41666" stroke="#4B465C" stroke-width="1.5" stroke-linecap="round" stroke-linejoin="round"/>
<path d="M6.41663 11L11 15.5833L20.1666 6.41666" stroke="white" stroke-opacity="0.2" stroke-width="1.5" stroke-linecap="round" stroke-linejoin="round"/>
<path d="M2.3637 10.4697C2.07081 10.1768 1.59594 10.1768 1.30304 10.4697C1.01015 10.7626 1.01015 11.2374 1.30304 11.5303L2.3637 10.4697ZM5.88638 16.1137C6.17927 16.4065 6.65414 16.4065 6.94704 16.1137C7.23993 15.8208 7.23993 15.3459 6.94704 15.053L5.88638 16.1137ZM10.4697 10.4697C10.1768 10.7626 10.1768 11.2374 10.4697 11.5303C10.7626 11.8232 11.2375 11.8232 11.5304 11.5303L10.4697 10.4697ZM16.1137 6.94699C16.4066 6.65409 16.4066 6.17922 16.1137 5.88633C15.8208 5.59343 15.3459 5.59343 15.053 5.88633L16.1137 6.94699ZM1.30304 11.5303L5.88638 16.1137L6.94704 15.053L2.3637 10.4697L1.30304 11.5303ZM11.5304 11.5303L16.1137 6.94699L15.053 5.88633L10.4697 10.4697L11.5304 11.5303Z" fill="#4B465C"/>
<path d="M2.3637 10.4697C2.07081 10.1768 1.59594 10.1768 1.30304 10.4697C1.01015 10.7626 1.01015 11.2374 1.30304 11.5303L2.3637 10.4697ZM5.88638 16.1137C6.17927 16.4065 6.65414 16.4065 6.94704 16.1137C7.23993 15.8208 7.23993 15.3459 6.94704 15.053L5.88638 16.1137ZM10.4697 10.4697C10.1768 10.7626 10.1768 11.2374 10.4697 11.5303C10.7626 11.8232 11.2375 11.8232 11.5304 11.5303L10.4697 10.4697ZM16.1137 6.94699C16.4066 6.65409 16.4066 6.17922 16.1137 5.88633C15.8208 5.59343 15.3459 5.59343 15.053 5.88633L16.1137 6.94699ZM1.30304 11.5303L5.88638 16.1137L6.94704 15.053L2.3637 10.4697L1.30304 11.5303ZM11.5304 11.5303L16.1137 6.94699L15.053 5.88633L10.4697 10.4697L11.5304 11.5303Z" fill="white" fill-opacity="0.2"/>
</svg>
