<svg width="22" height="22" viewBox="0 0 22 22" fill="none" xmlns="http://www.w3.org/2000/svg">
<path d="M4.58333 4.58334V19.25" stroke="#4B465C" stroke-width="1.5" stroke-linecap="round" stroke-linejoin="round"/>
<path d="M4.58333 4.58334V19.25" stroke="white" stroke-opacity="0.2" stroke-width="1.5" stroke-linecap="round" stroke-linejoin="round"/>
<path d="M17.4167 4.58334V12.8333" stroke="#4B465C" stroke-width="1.5" stroke-linecap="round" stroke-linejoin="round"/>
<path d="M17.4167 4.58334V12.8333" stroke="white" stroke-opacity="0.2" stroke-width="1.5" stroke-linecap="round" stroke-linejoin="round"/>
<path d="M4.58337 4.58337C6.36557 2.83647 9.21784 2.83647 11 4.58337C12.7822 6.33028 15.6345 6.33028 17.4167 4.58337" stroke="#4B465C" stroke-width="1.5" stroke-linecap="round" stroke-linejoin="round"/>
<path d="M4.58337 4.58337C6.36557 2.83647 9.21784 2.83647 11 4.58337C12.7822 6.33028 15.6345 6.33028 17.4167 4.58337" stroke="white" stroke-opacity="0.2" stroke-width="1.5" stroke-linecap="round" stroke-linejoin="round"/>
<path d="M4.58337 12.8334C6.36557 11.0865 9.21784 11.0865 11 12.8334C12.7822 14.5803 15.6345 14.5803 17.4167 12.8334" stroke="#4B465C" stroke-width="1.5" stroke-linecap="round" stroke-linejoin="round"/>
<path d="M4.58337 12.8334C6.36557 11.0865 9.21784 11.0865 11 12.8334C12.7822 14.5803 15.6345 14.5803 17.4167 12.8334" stroke="white" stroke-opacity="0.2" stroke-width="1.5" stroke-linecap="round" stroke-linejoin="round"/>
</svg>
