<svg width="24" height="27" viewBox="0 0 24 27" fill="none" xmlns="http://www.w3.org/2000/svg">
<path d="M20.9999 3.71793L14.4999 23.0824C14.4104 23.2927 14.215 23.4276 13.9999 23.4276C13.7849 23.4276 13.5895 23.2927 13.4999 23.0824L9.99995 15.5518L2.99995 11.7864C2.80443 11.6901 2.67908 11.4799 2.67908 11.2485C2.67908 11.0172 2.80443 10.807 2.99995 10.7106L20.9999 3.71793" stroke="#7367F0" stroke-width="1.5" stroke-linecap="round" stroke-linejoin="round"/>
<path d="M20.9999 3.71793L14.4999 23.0824C14.4104 23.2927 14.215 23.4276 13.9999 23.4276C13.7849 23.4276 13.5895 23.2927 13.4999 23.0824L9.99995 15.5518L2.99995 11.7864C2.80443 11.6901 2.67908 11.4799 2.67908 11.2485C2.67908 11.0172 2.80443 10.807 2.99995 10.7106L20.9999 3.71793" stroke="white" stroke-opacity="0.2" stroke-width="1.5" stroke-linecap="round" stroke-linejoin="round"/>
</svg>
