<svg width="22" height="23" viewBox="0 0 22 23" fill="none" xmlns="http://www.w3.org/2000/svg">
<path d="M17.4167 8.38434L12.5281 4.582C11.6455 3.8954 10.4095 3.8954 9.52694 4.582L4.63744 8.38434C4.04198 8.84741 3.69384 9.55959 3.69419 10.3139V16.9139C3.69419 17.9264 4.515 18.7473 5.52752 18.7473H16.5275C17.54 18.7473 18.3609 17.9264 18.3609 16.9139V10.3139C18.3609 9.5595 18.0125 8.84725 17.4167 8.38434" stroke="#4B465C" stroke-width="1.5" stroke-linecap="round" stroke-linejoin="round"/>
<path d="M17.4167 8.38434L12.5281 4.582C11.6455 3.8954 10.4095 3.8954 9.52694 4.582L4.63744 8.38434C4.04198 8.84741 3.69384 9.55959 3.69419 10.3139V16.9139C3.69419 17.9264 4.515 18.7473 5.52752 18.7473H16.5275C17.54 18.7473 18.3609 17.9264 18.3609 16.9139V10.3139C18.3609 9.5595 18.0125 8.84725 17.4167 8.38434" stroke="white" stroke-opacity="0.2" stroke-width="1.5" stroke-linecap="round" stroke-linejoin="round"/>
<path d="M14.6667 14.15C12.6408 15.372 9.35734 15.372 7.33334 14.15" stroke="#4B465C" stroke-width="1.5" stroke-linecap="round" stroke-linejoin="round"/>
<path d="M14.6667 14.15C12.6408 15.372 9.35734 15.372 7.33334 14.15" stroke="white" stroke-opacity="0.2" stroke-width="1.5" stroke-linecap="round" stroke-linejoin="round"/>
</svg>
